# xmcd
#
# Track frame offsets:
# 150
# 15469
# 28412
# 42812
# 56664
# 70356
# 85819
# 99105
# 111804
# 126067
# 140582
# 154190
# 169858
# 188568
# 203340
#
# Disc length: 2904 seconds
#
# Revision: 0
# Processed by: cddbd v1.5.2PL0 Copyright (c) Steve Scherf et al.
# Submitted via: Audion 3.0.2 (http://www.panic.com/audion/)
#
DISCID=c00b560f
DTITLE=Tigrillos - Tus Favoritos De...Tigrillos
DYEAR=1900
DGENRE=
TTITLE0=Mira Oye
TTITLE1=Por Quanto Me Lo Das
TTITLE2=Dejate Querer
TTITLE3=En Plena Calle
TTITLE4=Bailame
TTITLE5=Mirala
TTITLE6=Micaela
TTITLE7=Sera Por QueTe Amo
TTITLE8=Se Baila Asi
TTITLE9=El Meneito
TTITLE10=La Gringa
TTITLE11=Que Se Mueran Los Feos
TTITLE12=Que Linda Es Lupe
TTITLE13=Tapame
TTITLE14=Mi Gorda
EXTD=
EXTT0=
EXTT1=
EXTT2=
EXTT3=
EXTT4=
EXTT5=
EXTT6=
EXTT7=
EXTT8=
EXTT9=
EXTT10=
EXTT11=
EXTT12=
EXTT13=
EXTT14=
PLAYORDER=
